<svg class="icon" width="20" height="20" viewBox="0 0 20 20" fill="none" xmlns="http://www.w3.org/2000/svg">
<path d="M3.52571 15.3138C3.54519 15.3959 3.58109 15.4733 3.63126 15.5412C3.68142 15.6091 3.7448 15.6662 3.8176 15.709C3.89039 15.7518 3.97108 15.7794 4.05483 15.7902C4.13857 15.801 4.22363 15.7947 4.30489 15.7718C8.03061 14.7431 11.9654 14.7427 15.6913 15.7707C15.7725 15.7936 15.8576 15.7999 15.9413 15.7891C16.025 15.7783 16.1056 15.7507 16.1784 15.7079C16.2512 15.6652 16.3146 15.6081 16.3647 15.5402C16.4149 15.4724 16.4508 15.395 16.4703 15.3129L18.4616 6.85067C18.4883 6.73738 18.4828 6.6189 18.4457 6.50857C18.4087 6.39825 18.3416 6.30045 18.252 6.22621C18.1623 6.15196 18.0538 6.10421 17.9385 6.08834C17.8232 6.07247 17.7057 6.0891 17.5994 6.13637L13.6475 7.89275C13.5048 7.95617 13.3436 7.96388 13.1955 7.91435C13.0474 7.86482 12.9232 7.76165 12.8474 7.62514L10.5464 3.4834C10.4923 3.38597 10.4131 3.30478 10.317 3.24826C10.2209 3.19173 10.1115 3.16193 10 3.16193C9.88857 3.16193 9.77914 3.19173 9.68308 3.24826C9.58701 3.30478 9.50781 3.38597 9.45368 3.4834L7.15272 7.62514C7.07688 7.76165 6.95269 7.86482 6.8046 7.91435C6.6565 7.96388 6.49523 7.95617 6.35253 7.89275L2.40008 6.1361C2.29375 6.08885 2.17634 6.07221 2.06107 6.08807C1.94579 6.10392 1.83724 6.15164 1.74762 6.22586C1.658 6.30007 1.59088 6.39783 1.55381 6.50812C1.51674 6.61842 1.51119 6.73687 1.5378 6.85014L3.52571 15.3138Z" stroke="#9F9F9F" stroke-width="2" stroke-linecap="round" stroke-linejoin="round"/>
</svg>
